<?xml version="1.0" standalone="no"?><!DOCTYPE svg PUBLIC "-//W3C//DTD SVG 1.1//EN" "http://www.w3.org/Graphics/SVG/1.1/DTD/svg11.dtd"><svg t="1491646730726" class="icon" style="" viewBox="0 0 1024 1024" version="1.1" xmlns="http://www.w3.org/2000/svg" p-id="3622" xmlns:xlink="http://www.w3.org/1999/xlink" width="48" height="48"><defs><style type="text/css"></style></defs><path d="M939.070063 1010.463953 413.17999 1010.463953c-11.296296 0-20.45399-9.049319-20.45399-20.215565l0-127.080618c0-11.162633 9.157694-20.215565 20.45399-20.215565L939.070063 842.952205c11.299908 0 20.45399 9.052932 20.45399 20.215565l0 127.080618C959.524053 1001.414633 950.369971 1010.463953 939.070063 1010.463953zM937.610612 636.443491c11.296296 0 20.457602 9.060157 20.457602 20.22279l0 127.073393c0 11.180696-9.161307 20.22279-20.457602 20.22279L692.191632 803.962464c-11.292683 0-20.45399-9.042094-20.45399-20.22279l0-127.073393c0-11.162633 9.161307-20.22279 20.45399-20.22279L937.610612 636.443491zM939.070063 600.347365 413.17999 600.347365c-11.296296 0-20.45399-9.052932-20.45399-20.215565l0-127.087843c0-11.162633 9.157694-20.211952 20.45399-20.211952L939.070063 432.832005c11.299908 0 20.45399 9.045707 20.45399 20.211952l0 127.087843C959.524053 591.294433 950.369971 600.347365 939.070063 600.347365zM598.700064 395.276427l0-20.211952c-3.099527-66.488111-28.401496-119.989275-35.055726-99.64366-6.657842 20.345615-21.909829 50.542525-21.909829 50.542525-40.680392 57.785592-33.599887-137.199238-33.599887-137.199238-101.616087 88.033077-82.852748 194.399605-80.555197 205.536951l-74.287504-0.466013c0 0-120.650363-195.797643 189.902039-378.355465 0 0-10.63882 74.739067 81.812347 138.637014 3.265702 2.496239 17.23525 14.825711 23.372892 23.105567 59.375093 80.222846 42.620306 201.443985 27.754858 218.05066L598.700064 395.272815zM350.362182 453.043957l0 127.087843c0 11.162633-9.154082 20.215565-20.450377 20.215565L84.489212 600.347365c-11.289071 0-20.450377-9.052932-20.450377-20.215565l0-127.087843c0-11.162633 9.157694-20.211952 20.450377-20.211952l245.422592 0C341.2081 432.832005 350.362182 441.881324 350.362182 453.043957zM84.489212 636.443491l525.897298 0c11.296296 0 20.45399 9.060157 20.45399 20.22279l0 127.073393c0 11.180696-9.157694 20.22279-20.45399 20.22279L84.489212 803.962464c-11.289071 0-20.450377-9.042094-20.450377-20.22279l0-127.073393C64.042447 645.503648 73.200141 636.443491 84.489212 636.443491zM84.489212 842.955817l245.422592 0c11.296296 0 20.450377 9.052932 20.450377 20.215565l0 127.080618c0 11.166246-9.154082 20.215565-20.450377 20.215565L84.489212 1010.467565c-11.289071 0-20.450377-9.049319-20.450377-20.215565l0-127.080618C64.042447 852.008749 73.200141 842.955817 84.489212 842.955817z" p-id="3623" fill="#d81e06"></path></svg>